<svg width="60" height="29" viewBox="0 0 60 29" fill="none" xmlns="http://www.w3.org/2000/svg">
<path d="M6.7629 13.9314L5.88697 17.7339H0.469177L4.88127 1.51424C5.10836 0.639323 5.82208 0.0672607 6.66557 0.0672607H11.5319C12.4078 0.0672607 13.1215 0.639323 13.3162 1.51424L17.7282 17.7339H12.3105L11.4345 13.9314H6.7629ZM9.71511 6.259C9.58534 5.61963 9.45557 4.87932 9.42313 4.23995H8.74185C8.67697 4.87932 8.57964 5.61963 8.44987 6.259L7.60639 10.0279H10.5262L9.71511 6.259Z" fill="black"/>
<path d="M24.1194 12.4171C24.1194 12.9555 24.5087 13.3257 25.1576 13.3257H30.8673L31.1269 17.4647C28.5964 17.8349 25.6118 17.8349 22.8218 17.8349C20.3562 17.8349 18.7665 16.186 18.7665 13.8305V0.100952H24.1194V12.4171Z" fill="black"/>
<path d="M45.2713 17.4984C42.8057 17.8349 39.3669 17.8349 36.4147 17.8349C34.0789 17.8349 32.4243 16.186 32.4243 13.8304V4.00444C32.4243 1.61523 34.0789 0 36.4147 0C39.3345 0 42.8057 -2.08288e-08 45.2713 0.336507L45.0118 4.23999H38.783C38.1666 4.23999 37.7773 4.61015 37.7773 5.14856V6.86475H44.1359V10.5663H37.7773V12.6863C37.7773 13.2247 38.1666 13.5949 38.783 13.5949H45.0118L45.2713 17.4984Z" fill="black"/>
<path d="M53.5769 4.23999C52.8956 4.23999 52.5063 4.61015 52.5063 5.14856V7.2349H58.6053V10.9028H52.5387V17.7339H47.1858V4.00443C47.1858 1.61523 48.8728 0 51.2411 0C54.0635 0 57.4699 -4.16577e-08 59.8057 0.370158L59.5462 4.27364H53.5769V4.23999Z" fill="black"/>
<path d="M0.565018 25.226C0.887683 25.1879 1.24262 25.1879 1.62981 25.1879C2.50101 25.1879 2.82368 25.6835 2.82368 27.094C2.82368 28.5045 2.50101 29.0001 1.62981 29.0001C1.21035 29.0001 0.855417 28.9619 0.565018 28.9619V25.226ZM0.855417 28.6188C1.08128 28.6188 1.33942 28.6188 1.62981 28.6188C2.27515 28.6188 2.50101 28.1995 2.50101 27.0558C2.50101 25.9122 2.27515 25.4547 1.62981 25.4547C1.33942 25.4547 1.08128 25.4547 0.855417 25.4547V28.6188Z" fill="black"/>
<path d="M8.30899 28.8852C7.88953 28.9233 7.40553 28.9233 6.98606 28.9233C6.6634 28.9233 6.43753 28.6946 6.43753 28.3133V25.8354C6.43753 25.4542 6.6634 25.2255 6.98606 25.2255C7.43779 25.2255 7.88953 25.2255 8.30899 25.2636L8.27672 25.5304H7.01833C6.82473 25.5304 6.72793 25.6448 6.72793 25.9117V26.8266H8.11539V27.0934H6.72793V28.2371C6.72793 28.5039 6.82473 28.6183 7.01833 28.6183H8.27672L8.30899 28.8852Z" fill="black"/>
<path d="M13.0518 28.8089C13.0195 28.8852 12.9872 28.9233 12.9227 28.9233H12.6C12.5355 28.9233 12.5032 28.8852 12.471 28.8089L11.4707 25.2255H11.7934L12.6 28.2371C12.6323 28.3896 12.6646 28.5039 12.6968 28.6564H12.8259C12.8582 28.5421 12.8904 28.3896 12.9227 28.2371L13.7294 25.2255H14.052L13.0518 28.8089Z" fill="black"/>
<path d="M19.312 28.8852C18.8926 28.9233 18.4086 28.9233 17.9891 28.9233C17.6665 28.9233 17.4406 28.6946 17.4406 28.3133V25.8354C17.4406 25.4542 17.6665 25.2255 17.9891 25.2255C18.4409 25.2255 18.8926 25.2255 19.312 25.2636L19.2798 25.5304H18.0214C17.8278 25.5304 17.731 25.6448 17.731 25.9117V26.8266H19.1185V27.0934H17.731V28.2371C17.731 28.5039 17.8278 28.6183 18.0214 28.6183H19.2798L19.312 28.8852Z" fill="black"/>
<path d="M23.1517 28.1989C23.1517 28.4657 23.2808 28.5801 23.4744 28.5801H24.636V28.8469C24.2488 28.8851 23.8293 28.8851 23.4098 28.8851C23.0226 28.8851 22.829 28.6182 22.829 28.237V25.1873H23.1194V28.1989H23.1517Z" fill="black"/>
<path d="M30.2501 27.0553C30.2501 28.4658 29.9274 28.9614 29.0562 28.9614C28.185 28.9614 27.8624 28.4658 27.8624 27.0553C27.8624 25.6448 28.185 25.1492 29.0562 25.1492C29.9274 25.1492 30.2501 25.6448 30.2501 27.0553ZM28.1527 27.0553C28.1527 28.237 28.3786 28.6564 29.0562 28.6564C29.7338 28.6564 29.9597 28.237 29.9597 27.0553C29.9597 25.8735 29.7338 25.4541 29.0562 25.4541C28.3786 25.4541 28.1527 25.8735 28.1527 27.0553Z" fill="black"/>
<path d="M33.8643 25.2254C34.1869 25.1873 34.4128 25.1873 34.8968 25.1873C35.6066 25.1873 35.8648 25.416 35.8648 26.3309C35.8648 27.2077 35.6066 27.4746 34.929 27.4746C34.6064 27.4746 34.3483 27.4364 34.1547 27.4364V28.9613H33.8643V25.2254ZM34.8968 27.1315C35.3808 27.1315 35.5744 26.979 35.5744 26.2928C35.5744 25.6447 35.413 25.4541 34.8968 25.4541C34.6064 25.4541 34.316 25.4541 34.1547 25.4541V27.0933H34.8968V27.1315Z" fill="black"/>
<path d="M42.2858 25.2255C42.3826 25.2255 42.4148 25.3017 42.4148 25.378L42.5439 28.9233H42.2535L42.1245 25.5304H42.0277L41.221 28.4277C41.1887 28.5039 41.1565 28.5421 41.0919 28.5421H40.8015C40.737 28.5421 40.6725 28.5039 40.6725 28.4277L39.8658 25.5304H39.769L39.6399 28.9233H39.3495L39.4786 25.378C39.4786 25.2636 39.5109 25.2255 39.6077 25.2255H39.9626C40.0271 25.2255 40.0594 25.2636 40.0917 25.3398L40.7693 27.7415C40.8015 27.894 40.8661 28.0846 40.8983 28.2371H40.9951C41.0274 28.0846 41.0919 27.894 41.1242 27.7415L41.8018 25.3398C41.8341 25.2636 41.8663 25.2255 41.9309 25.2255H42.2858Z" fill="black"/>
<path d="M48.0613 28.8852C47.6418 28.9233 47.1578 28.9233 46.7384 28.9233C46.4157 28.9233 46.1898 28.6946 46.1898 28.3133V25.8354C46.1898 25.4542 46.4157 25.2255 46.7384 25.2255C47.1901 25.2255 47.6418 25.2255 48.0613 25.2636L48.029 25.5304H46.7706C46.577 25.5304 46.4802 25.6448 46.4802 25.9117V26.8266H47.8677V27.0934H46.4802V28.2371C46.4802 28.5039 46.577 28.6183 46.7706 28.6183H48.029L48.0613 28.8852Z" fill="black"/>
<path d="M53.9335 28.7326C53.9335 28.8469 53.9013 28.8851 53.8045 28.8851H53.4818C53.4173 28.8851 53.3527 28.8469 53.3527 28.7707L52.1589 25.9878C52.0943 25.8734 52.0298 25.6828 51.9975 25.5304H51.9007C51.9007 25.6828 51.9007 25.8353 51.9007 25.9878V28.8851H51.6103V25.3397C51.6103 25.2254 51.6426 25.1873 51.7394 25.1873H52.0621C52.1266 25.1873 52.1911 25.2254 52.1911 25.3016L53.3527 28.0464C53.4173 28.1989 53.4818 28.3895 53.5463 28.542H53.6431C53.6431 28.3514 53.6431 28.1989 53.6431 28.0083V25.1873H53.9335V28.7326Z" fill="black"/>
<path d="M58.6771 25.5304V28.9233H58.3867V25.5304H57.3542V25.2255H59.7419V25.5304H58.6771Z" fill="black"/>
<path d="M60 21.9553H0.306976V22.6304H60V21.9553Z" fill="black"/>
</svg>
